<svg width="24" height="24" viewBox="0 0 24 24" fill="none" xmlns="http://www.w3.org/2000/svg">
<path fill-rule="evenodd" clip-rule="evenodd" d="M8 19.5C8 18.6716 8.67157 18 9.5 18C10.3284 18 11 18.6716 11 19.5C11 20.3284 10.3284 21 9.5 21C8.67157 21 8 20.3284 8 19.5Z" fill="black"/>
<path fill-rule="evenodd" clip-rule="evenodd" d="M17 19.5C17 18.6716 17.6716 18 18.5 18C19.3284 18 20 18.6716 20 19.5C20 20.3284 19.3284 21 18.5 21C17.6716 21 17 20.3284 17 19.5Z" fill="black"/>
<path fill-rule="evenodd" clip-rule="evenodd" d="M1.91998 2.76696C1.91998 2.29915 2.29606 1.91992 2.75998 1.91992H6.11998C6.52035 1.91992 6.86507 2.20485 6.94365 2.60072L7.64914 6.15512H21.24C21.4903 6.15512 21.7276 6.26772 21.8872 6.46222C22.0468 6.65673 22.112 6.91287 22.0651 7.16084L20.7199 14.2739C20.6047 14.8588 20.2891 15.3843 19.8284 15.7582C19.37 16.1304 18.7969 16.3289 18.2087 16.3196H10.0584C9.47022 16.3289 8.89719 16.1304 8.43878 15.7582C7.97827 15.3844 7.66275 14.8592 7.54742 14.2746C7.54737 14.2743 7.54746 14.2748 7.54742 14.2746L6.14417 7.20478C6.13847 7.18139 6.13374 7.15763 6.13002 7.13352L5.43145 3.614H2.75998C2.29606 3.614 1.91998 3.23477 1.91998 2.76696ZM7.98539 7.84921L9.19509 13.9438C9.23349 14.1388 9.33869 14.314 9.49225 14.4386C9.64582 14.5633 9.83798 14.6295 10.0351 14.6257L10.0512 14.6255H18.216L18.2321 14.6257C18.4292 14.6295 18.6213 14.5633 18.7749 14.4386C18.9278 14.3145 19.0327 14.1404 19.0715 13.9465L20.2246 7.84921H7.98539Z" fill="black"/>
</svg>
