<svg width="24" height="24" viewBox="0 0 24 24" fill="none" xmlns="http://www.w3.org/2000/svg">
<path fill-rule="evenodd" clip-rule="evenodd" d="M1 12C1 11.4477 1.49249 11 2.1 11H21.9C22.5075 11 23 11.4477 23 12C23 12.5523 22.5075 13 21.9 13H2.1C1.49249 13 1 12.5523 1 12Z" fill="#DA920F"/>
<path fill-rule="evenodd" clip-rule="evenodd" d="M1 4C1 3.44772 1.49249 3 2.1 3H21.9C22.5075 3 23 3.44772 23 4C23 4.55228 22.5075 5 21.9 5H2.1C1.49249 5 1 4.55228 1 4Z" fill="#DA920F"/>
<path fill-rule="evenodd" clip-rule="evenodd" d="M1 20C1 19.4477 1.49249 19 2.1 19H21.9C22.5075 19 23 19.4477 23 20C23 20.5523 22.5075 21 21.9 21H2.1C1.49249 21 1 20.5523 1 20Z" fill="#DA920F"/>
</svg>
