<svg width="38" height="38" viewBox="0 0 38 38" fill="none" xmlns="http://www.w3.org/2000/svg">
<path d="M28.9592 9.95469C26.3264 7.43042 22.8158 6 19.042 6C18.0767 6 17.1113 6.08414 16.1459 6.25242L18.5155 9.87055C18.691 9.87055 18.8665 9.87055 19.042 9.87055C24.4833 9.87055 28.9592 14.1618 28.9592 19.3786C28.9592 22.4078 27.4673 25.1003 25.1854 26.8673L12.4598 7.59871C11.2312 8.1877 10.178 8.94498 9.21261 9.87055C9.21261 9.87055 9.21261 9.87055 9.12485 9.95469C6.49197 12.479 5 15.8447 5 19.4628C5 22.6602 6.14092 25.6052 8.24722 28.0453H14.7417C11.4067 26.5307 9.12485 23.2492 9.12485 19.4628C9.12485 17.1068 10.0025 15.0032 11.4944 13.3204L23.9568 32C25.1854 31.5793 26.3264 30.9061 27.3795 30.233C30.8023 27.7929 32.9963 23.8382 32.9963 19.4628C33.0841 15.8447 31.5921 12.479 28.9592 9.95469Z" fill="#DA920F"/>
<path d="M32.5202 5.56306C28.9259 1.96847 24.1334 0 19.0842 0C14.035 0 9.24259 1.96847 5.64825 5.56306C1.96833 9.15766 0 13.9505 0 19C0 24.0496 1.96833 28.8423 5.56267 32.4369C9.15701 36.0315 13.9495 38 18.9987 38C24.0479 38 28.8403 36.0315 32.4347 32.4369C36.029 28.8423 37.9973 24.0496 37.9973 19C38.0829 13.9505 36.1146 9.15766 32.5202 5.56306ZM29.7817 29.7838C26.872 32.6937 23.1065 34.2342 18.9987 34.2342C14.8908 34.2342 11.1253 32.6081 8.21564 29.7838C5.30593 26.8739 3.7655 23.1081 3.7655 19C3.7655 14.8919 5.39151 11.1261 8.21564 8.21621C11.1253 5.3063 14.8908 3.76577 18.9987 3.76577C23.1065 3.76577 26.872 5.39189 29.7817 8.21621C32.6914 11.1261 34.2318 14.8919 34.2318 19C34.2318 23.1081 32.6914 26.9595 29.7817 29.7838Z" fill="#636D6A"/>
</svg>
