<svg width="143" height="38" viewBox="0 0 143 38" fill="none" xmlns="http://www.w3.org/2000/svg">
<path d="M28.9592 9.95469C26.3264 7.43042 22.8158 6 19.042 6C18.0767 6 17.1113 6.08414 16.1459 6.25242L18.5155 9.87055C18.691 9.87055 18.8665 9.87055 19.042 9.87055C24.4833 9.87055 28.9592 14.1618 28.9592 19.3786C28.9592 22.4078 27.4673 25.1003 25.1854 26.8673L12.4598 7.59871C11.2312 8.1877 10.178 8.94498 9.21261 9.87055C9.21261 9.87055 9.21261 9.87055 9.12485 9.95469C6.49197 12.479 5 15.8447 5 19.4628C5 22.6602 6.14092 25.6052 8.24722 28.0453H14.7417C11.4067 26.5307 9.12485 23.2492 9.12485 19.4628C9.12485 17.1068 10.0025 15.0032 11.4944 13.3204L23.9568 32C25.1854 31.5793 26.3264 30.9061 27.3795 30.233C30.8023 27.7929 32.9963 23.8382 32.9963 19.4628C33.0841 15.8447 31.5921 12.479 28.9592 9.95469Z" fill="#DA920F"/>
<path d="M32.5202 5.56306C28.9259 1.96847 24.1334 0 19.0842 0C14.035 0 9.24259 1.96847 5.64825 5.56306C1.96833 9.15766 0 13.9505 0 19C0 24.0496 1.96833 28.8423 5.56267 32.4369C9.15701 36.0315 13.9495 38 18.9987 38C24.0479 38 28.8403 36.0315 32.4347 32.4369C36.029 28.8423 37.9973 24.0496 37.9973 19C38.0829 13.9505 36.1146 9.15766 32.5202 5.56306ZM29.7817 29.7838C26.872 32.6937 23.1065 34.2342 18.9987 34.2342C14.8908 34.2342 11.1253 32.6081 8.21564 29.7838C5.30593 26.8739 3.7655 23.1081 3.7655 19C3.7655 14.8919 5.39151 11.1261 8.21564 8.21621C11.1253 5.3063 14.8908 3.76577 18.9987 3.76577C23.1065 3.76577 26.872 5.39189 29.7817 8.21621C32.6914 11.1261 34.2318 14.8919 34.2318 19C34.2318 23.1081 32.6914 26.9595 29.7817 29.7838Z" fill="#636D6A"/>
<path d="M45.42 26V12H47.46L55.28 22.4V12H57.26V26H55.42L47.42 15.28V26H45.42ZM63.827 26.2C63.0404 26.2 62.347 26.0333 61.747 25.7C61.147 25.3667 60.6804 24.9 60.347 24.3C60.0137 23.6867 59.847 22.9867 59.847 22.2V15.82H61.827V21.86C61.827 22.66 62.0537 23.2933 62.507 23.76C62.9737 24.2267 63.5937 24.46 64.367 24.46C64.9137 24.46 65.4004 24.3467 65.827 24.12C66.2537 23.88 66.6004 23.5467 66.867 23.12V15.82H68.867V26H66.867V24.96C66.0804 25.7867 65.067 26.2 63.827 26.2ZM71.2347 26V15.82H73.2347V16.8C73.9947 16.0133 74.948 15.62 76.0947 15.62C76.788 15.62 77.4014 15.7733 77.9347 16.08C78.4814 16.3867 78.9147 16.8 79.2347 17.32C79.6614 16.76 80.1614 16.34 80.7347 16.06C81.308 15.7667 81.9547 15.62 82.6747 15.62C83.4347 15.62 84.0947 15.7867 84.6547 16.12C85.228 16.4533 85.6747 16.92 85.9947 17.52C86.328 18.12 86.4947 18.8133 86.4947 19.6V26H84.4947V19.94C84.4947 19.14 84.2814 18.5133 83.8547 18.06C83.4414 17.5933 82.8747 17.36 82.1547 17.36C81.6614 17.36 81.2147 17.4733 80.8147 17.7C80.4147 17.9267 80.068 18.2733 79.7747 18.74C79.8014 18.8733 79.8214 19.0133 79.8347 19.16C79.848 19.3067 79.8547 19.4533 79.8547 19.6V26H77.8747V19.94C77.8747 19.14 77.6614 18.5133 77.2347 18.06C76.8214 17.5933 76.2547 17.36 75.5347 17.36C75.0547 17.36 74.6214 17.4667 74.2347 17.68C73.848 17.88 73.5147 18.1867 73.2347 18.6V26H71.2347ZM88.7933 26V15.82H90.7933V26H88.7933ZM89.7933 14.18C89.4599 14.18 89.1733 14.06 88.9333 13.82C88.6933 13.5667 88.5733 13.2733 88.5733 12.94C88.5733 12.5933 88.6933 12.3067 88.9333 12.08C89.1733 11.84 89.4599 11.72 89.7933 11.72C90.1399 11.72 90.4333 11.84 90.6733 12.08C90.9133 12.3067 91.0333 12.5933 91.0333 12.94C91.0333 13.2733 90.9133 13.5667 90.6733 13.82C90.4333 14.06 90.1399 14.18 89.7933 14.18ZM96.6488 26.2C95.7688 26.2 94.9421 26.0733 94.1688 25.82C93.4088 25.5533 92.7488 25.18 92.1888 24.7L93.2887 23.38C93.8088 23.7933 94.3421 24.1133 94.8888 24.34C95.4488 24.5533 96.0154 24.66 96.5888 24.66C97.3088 24.66 97.8954 24.52 98.3488 24.24C98.8021 23.96 99.0288 23.5933 99.0288 23.14C99.0288 22.7667 98.8954 22.4733 98.6288 22.26C98.3621 22.0467 97.9488 21.9 97.3888 21.82L95.5488 21.56C94.5354 21.4133 93.7754 21.1 93.2688 20.62C92.7621 20.14 92.5088 19.5 92.5088 18.7C92.5088 18.0867 92.6754 17.5533 93.0088 17.1C93.3421 16.6333 93.8088 16.2733 94.4088 16.02C95.0088 15.7533 95.7088 15.62 96.5088 15.62C97.2421 15.62 97.9488 15.7267 98.6288 15.94C99.3088 16.1533 99.9621 16.4867 100.589 16.94L99.5688 18.26C99.0088 17.8867 98.4621 17.6133 97.9288 17.44C97.4088 17.2667 96.8821 17.18 96.3488 17.18C95.7354 17.18 95.2421 17.3133 94.8688 17.58C94.4954 17.8333 94.3088 18.1667 94.3088 18.58C94.3088 18.9533 94.4354 19.2467 94.6888 19.46C94.9554 19.66 95.3888 19.8 95.9888 19.88L97.8288 20.14C98.8421 20.2867 99.6088 20.6 100.129 21.08C100.649 21.5467 100.909 22.18 100.909 22.98C100.909 23.5933 100.722 24.1467 100.349 24.64C99.9754 25.12 99.4688 25.5 98.8288 25.78C98.1888 26.06 97.4621 26.2 96.6488 26.2ZM104.786 24.12H107.666C108.399 24.12 109.079 23.9933 109.706 23.74C110.332 23.4733 110.879 23.1133 111.346 22.66C111.826 22.1933 112.192 21.6533 112.446 21.04C112.712 20.4133 112.846 19.7333 112.846 19C112.846 18.28 112.712 17.6067 112.446 16.98C112.192 16.3533 111.826 15.8133 111.346 15.36C110.879 14.8933 110.332 14.5333 109.706 14.28C109.079 14.0133 108.399 13.88 107.666 13.88H104.786V24.12ZM102.686 26V12H107.626C108.679 12 109.652 12.18 110.546 12.54C111.439 12.8867 112.219 13.3733 112.886 14C113.552 14.6267 114.072 15.3667 114.446 16.22C114.819 17.0733 115.006 18 115.006 19C115.006 20.0133 114.819 20.9467 114.446 21.8C114.086 22.64 113.572 23.3733 112.906 24C112.239 24.6267 111.452 25.12 110.546 25.48C109.652 25.8267 108.679 26 107.626 26H102.686ZM121.857 26.18C120.857 26.18 119.95 25.9467 119.137 25.48C118.337 25.0133 117.697 24.38 117.217 23.58C116.75 22.78 116.517 21.8867 116.517 20.9C116.517 19.9267 116.744 19.0467 117.197 18.26C117.65 17.46 118.264 16.8267 119.037 16.36C119.81 15.88 120.67 15.64 121.617 15.64C122.564 15.64 123.404 15.88 124.137 16.36C124.87 16.8267 125.45 17.4667 125.877 18.28C126.317 19.08 126.537 19.9867 126.537 21V21.56H118.517C118.624 22.12 118.83 22.62 119.137 23.06C119.457 23.5 119.857 23.8467 120.337 24.1C120.83 24.3533 121.364 24.48 121.937 24.48C122.43 24.48 122.904 24.4067 123.357 24.26C123.824 24.1 124.21 23.8733 124.517 23.58L125.797 24.84C125.197 25.2933 124.577 25.6333 123.937 25.86C123.31 26.0733 122.617 26.18 121.857 26.18ZM118.537 20.06H124.557C124.477 19.5267 124.29 19.06 123.997 18.66C123.717 18.2467 123.364 17.9267 122.937 17.7C122.524 17.46 122.07 17.34 121.577 17.34C121.07 17.34 120.604 17.4533 120.177 17.68C119.75 17.9067 119.39 18.2267 119.097 18.64C118.817 19.04 118.63 19.5133 118.537 20.06ZM131.525 26.18C130.792 26.18 130.145 26.0533 129.585 25.8C129.025 25.5333 128.585 25.1667 128.265 24.7C127.945 24.2333 127.785 23.6933 127.785 23.08C127.785 22.12 128.152 21.3667 128.885 20.82C129.618 20.26 130.625 19.98 131.905 19.98C132.905 19.98 133.832 20.1733 134.685 20.56V19.48C134.685 18.7467 134.472 18.2 134.045 17.84C133.632 17.48 133.018 17.3 132.205 17.3C131.738 17.3 131.252 17.3733 130.745 17.52C130.238 17.6533 129.672 17.8667 129.045 18.16L128.305 16.66C129.078 16.3 129.798 16.04 130.465 15.88C131.132 15.7067 131.805 15.62 132.485 15.62C133.805 15.62 134.825 15.9333 135.545 16.56C136.278 17.1867 136.645 18.08 136.645 19.24V26H134.685V25.12C134.232 25.48 133.745 25.7467 133.225 25.92C132.705 26.0933 132.138 26.18 131.525 26.18ZM129.705 23.04C129.705 23.5333 129.912 23.9333 130.325 24.24C130.752 24.5333 131.305 24.68 131.985 24.68C132.518 24.68 133.005 24.6067 133.445 24.46C133.898 24.3 134.312 24.0533 134.685 23.72V22C134.298 21.7733 133.892 21.6133 133.465 21.52C133.052 21.4133 132.585 21.36 132.065 21.36C131.332 21.36 130.752 21.5133 130.325 21.82C129.912 22.1133 129.705 22.52 129.705 23.04ZM138.95 26V12L140.95 11.62V26H138.95Z" fill="#636D6A"/>
</svg>
